<svg xmlns="http://www.w3.org/2000/svg" version="1.1" xmlns:xlink="http://www.w3.org/1999/xlink" xmlns:svgjs="http://svgjs.dev/svgjs" width="2000" height="3087" viewBox="0 0 2000 3087"><g transform="matrix(1,0,0,1,-0.8881023102311474,1.2497975708502054)"><svg viewBox="0 0 160 247" data-background-color="#f23b11" preserveAspectRatio="xMidYMid meet" height="3087" width="2000" xmlns="http://www.w3.org/2000/svg" xmlns:xlink="http://www.w3.org/1999/xlink"><g id="tight-bounds" transform="matrix(1,0,0,1,0.07104818481849406,-0.09999999999999432)"><svg viewBox="0 0 159.857903630363 247.2" height="247.2" width="159.857903630363"><g><svg viewBox="0 0 159.857903630363 247.2" height="247.2" width="159.857903630363"><g><svg viewBox="0 0 159.857903630363 247.2" height="247.2" width="159.857903630363"><g><svg viewBox="0 0 159.857903630363 247.2" height="247.2" width="159.857903630363"><g><svg viewBox="0 0 159.857903630363 247.2" height="247.2" width="159.857903630363"><rect width="159.857903630363" height="247.2" x="0" y="0" opacity="1" fill="#ef3e22" data-fill-palette-color="tertiary"></rect><g transform="matrix(1,0,0,1,23.60759999999999,23.607599999999998)"><svg width="112.64270363036303" viewBox="2.1500000953674316 -34.29999923706055 25.600000381469727 45.44999694824219" height="199.9848" data-palette-color="#fbfbfb"><path d="M18.85 11.15L16.55 7.2Q18.8 6.1 20 4.78 21.2 3.45 21.78 2.08 22.35 0.7 22.43-0.68 22.5-2.05 22.5-3.25L22.5-3.25 22.5-3.95Q21.35-1.85 19.15-0.73 16.95 0.4 14.05 0.4L14.05 0.4Q10.9 0.4 8.65-0.8 6.4-2 4.95-4.23 3.5-6.45 2.83-9.55 2.15-12.65 2.15-16.45L2.15-16.45Q2.15-20.35 3.05-23.63 3.95-26.9 5.78-29.28 7.6-31.65 10.38-32.98 13.15-34.3 16.95-34.3L16.95-34.3Q20.3-34.3 22.58-33.2 24.85-32.1 26.15-30.75L26.15-30.75 23.25-26.95Q21.95-28.25 20.08-28.98 18.2-29.7 16.25-29.7L16.25-29.7Q14.1-29.7 12.65-28.7 11.2-27.7 10.3-25.98 9.4-24.25 9-21.93 8.6-19.6 8.6-16.95L8.6-16.95Q8.6-14.1 8.97-11.78 9.35-9.45 10.13-7.78 10.9-6.1 12.15-5.18 13.4-4.25 15.2-4.25L15.2-4.25Q16.35-4.25 17.55-4.78 18.75-5.3 19.73-6.28 20.7-7.25 21.3-8.65 21.9-10.05 21.9-11.85L21.9-11.85 21.9-16.4 27.75-16.4 27.75-1.35Q27.75 1.7 26.93 3.75 26.1 5.8 24.83 7.18 23.55 8.55 21.98 9.47 20.4 10.4 18.85 11.15L18.85 11.15Z" opacity="1" transform="matrix(1,0,0,1,0,0)" fill="#fbfbfb" class="undefined-text-0" data-fill-palette-color="quaternary" id="text-0"></path></svg></g></svg></g></svg></g></svg></g><g></g></svg></g><defs></defs></svg><rect width="159.857903630363" height="247.2" fill="none" stroke="none" visibility="hidden"></rect></g></svg></g></svg>